<svg xmlns="http://www.w3.org/2000/svg" xmlns:xlink="http://www.w3.org/1999/xlink" version="1.1" width="1000" height="1000" viewBox="0 0 1000 1000" xml:space="preserve">
<rect x="0" y="0" width="100%" height="100%" fill="rgba(255,255,255,0)"/>
<g transform="matrix(-0.4666 0 0 -0.4666 500.0354 500.0381)" id="993038">
<path style="stroke: none; stroke-width: 1; stroke-dasharray: none; stroke-linecap: butt; stroke-dashoffset: 0; stroke-linejoin: miter; stroke-miterlimit: 4; is-custom-font: none; font-file-url: none; fill: rgb(224,86,91); fill-rule: nonzero; opacity: 1;" vector-effect="non-scaling-stroke" transform=" translate(-995.6062, -1071.5)" d="m 1851.6 1735.6 c -15 111.6 -90.1 208.1 -195.2 251 c -51.5 21.4 -107.3 27.9 -163.1 21.4 c -53.6 -6.4 -107.3 -23.6 -163 -55.7 c -77.2 -43 -154.5 -109.4 -244.6 -208.1 c 141.6 -173.8 227.4 -332.5 259.6 -474.1 c 15 -66.5 17.2 -126.6 10.7 -182.4 c -8.6 -53.6 -27.9 -103 -57.9 -145.9 c -66.5 -96.5 -178.1 -152.3 -302.5 -152.3 s -236 57.9 -302.5 152.3 c -30 42.9 -49.3 92.3 -57.9 145.9 c -8.6 55.8 -6.4 118 10.7 182.4 c 32.2 141.6 120.1 302.5 259.6 476.2 c -88 98.7 -167.3 165.2 -244.6 208.1 c -55.8 32.2 -109.4 49.4 -163 55.8 c -55.3 6.2 -111.2 -1.2 -163 -21.4 c -105.1 -42.9 -180.2 -139.5 -195.2 -251 c -6.4 -53.6 -2.1 -107.2 19.3 -167.3 c 6.4 -21.5 17.2 -42.9 27.9 -68.6 c 15 -34.3 32.2 -70.8 49.3 -107.3 l 2.2 -4.3 c 148 -319.7 306.8 -645.8 472 -963.3 l 6.4 -12.9 c 17.2 -32.1 34.3 -66.5 51.5 -98.7 c 17.2 -34.3 36.5 -66.5 60.1 -94.4 c 45.1 -51.5 105.1 -79.4 171.6 -79.4 s 126.6 27.9 171.6 79.4 c 23.6 27.9 42.9 60.1 60.1 94.4 c 17.2 32.2 34.3 66.5 51.5 98.6 l 6.5 12.9 c 163 319.6 321.8 645.7 469.8 965.4 v 2.1 c 17.2 34.3 32.2 73 49.3 107.3 c 10.7 25.8 21.5 47.2 27.9 68.6 c 17.1 55.9 23.5 109.5 14.9 165.3 z m -856 -100.9 c -115.8 -145.9 -190.9 -283.2 -216.7 -399 c -10.7 -49.4 -12.9 -92.3 -6.4 -130.9 c 4.3 -34.3 17.2 -64.4 34.3 -90.1 c 40.8 -57.9 109.4 -94.4 188.8 -94.4 s 150.2 34.4 188.8 94.4 c 17.2 25.8 30 55.8 34.3 90.1 c 6.4 38.6 4.3 83.7 -6.4 130.9 c -25.7 113.7 -100.8 251 -216.7 399 z m 967.6 -111.5 c -10.7 -25.7 -21.5 -53.6 -32.2 -77.2 c -17.2 -38.6 -34.3 -75.1 -49.4 -109.4 l -2.1 -2.1 c -148 -321.8 -306.8 -647.9 -474.1 -969.7 l -6.4 -12.9 c -17.2 -32.2 -34.3 -66.5 -51.5 -100.8 c -21.5 -38.6 -42.9 -79.4 -77.2 -118 c -68.7 -85.9 -167.4 -133.1 -272.5 -133.1 c -107.3 0 -203.8 47.2 -274.7 128.7 c -32.2 38.6 -55.8 79.4 -77.2 118 c -17.2 34.3 -34.3 68.6 -51.5 100.8 l -6.4 12.8 c -165.2 321.8 -326.1 647.9 -474.1 969.7 l -2.1 4.3 c -15 34.3 -32.2 70.8 -49.4 109.4 c -11.5 25.4 -22.2 51.2 -32.2 77.2 c -27.9 79.4 -36.5 154.5 -25.8 231.7 c 23.6 160.9 130.9 296.1 278.9 356.1 c 55.8 23.6 113.7 34.3 173.8 34.3 c 17.2 0 38.6 -2.1 55.8 -4.3 c 70.8 -8.6 143.7 -32.1 214.5 -72.9 c 88 -49.3 171.6 -120.1 266 -223.1 c 94.4 103 180.2 173.8 266 223.1 c 70.8 40.8 143.7 64.3 214.5 72.9 c 17.2 2.2 38.6 4.3 55.8 4.3 c 60.1 0 120.1 -10.7 173.8 -34.3 c 150.2 -60.1 255.3 -197.4 278.9 -356.1 c 17.2 -75 8.6 -150 -19.2 -229.4 z" stroke-linecap="round"/>
</g>
</svg>